<svg width="92" height="105" viewBox="0 0 92 105" fill="none" xmlns="http://www.w3.org/2000/svg">
<g clip-path="url(#clip0_101:32)">
<path d="M46 41.5611C43.8337 41.5619 41.7163 42.2042 39.9155 43.4067C38.1147 44.6091 36.7114 46.3178 35.883 48.3167C35.0546 50.3156 34.8382 52.5149 35.2613 54.6366C35.6844 56.7582 36.728 58.707 38.2601 60.2364C39.7922 61.7658 41.7439 62.8072 43.8686 63.229C45.9934 63.6507 48.1956 63.4339 50.1969 62.6058C52.1982 61.7777 53.9087 60.3757 55.1121 58.5769C56.3155 56.7781 56.9579 54.6633 56.9579 52.5C56.9557 49.5988 55.8004 46.8171 53.7457 44.766C51.6911 42.7149 48.9052 41.5622 46 41.5611V41.5611ZM71.6101 33.1529C71.0525 31.7417 70.2104 30.4599 69.1361 29.3871C68.0619 28.3143 66.7784 27.4734 65.3652 26.9165C61.0527 25.2164 50.7848 25.5979 46 25.5979C41.2152 25.5979 30.9576 25.2021 26.6328 26.9165C25.2196 27.4734 23.9361 28.3143 22.8618 29.3871C21.7876 30.4599 20.9455 31.7417 20.3879 33.1529C18.6875 37.4596 19.0674 47.7237 19.0674 52.498C19.0674 57.2722 18.6875 67.524 20.3961 71.845C20.9537 73.2563 21.7958 74.5381 22.87 75.6109C23.9443 76.6837 25.2278 77.5246 26.641 78.0814C30.9535 79.7815 41.2213 79.4001 46.0082 79.4001C50.7951 79.4001 61.0486 79.7959 65.3734 78.0814C66.7866 77.5246 68.0701 76.6837 69.1444 75.6109C70.2186 74.5381 71.0607 73.2563 71.6183 71.845C73.333 67.5384 72.9388 57.2742 72.9388 52.5C72.9388 47.7258 73.333 37.476 71.6183 33.155L71.6101 33.1529ZM46 69.3164C42.6695 69.3164 39.4138 68.3301 36.6446 66.4823C33.8754 64.6345 31.7171 62.0082 30.4425 58.9354C29.168 55.8626 28.8345 52.4813 29.4843 49.2193C30.134 45.9572 31.7378 42.9608 34.0928 40.609C36.4478 38.2572 39.4483 36.6556 42.7148 36.0067C45.9813 35.3579 49.3671 35.6909 52.4441 36.9637C55.5211 38.2365 58.151 40.3919 60.0014 43.1573C61.8517 45.9227 62.8393 49.174 62.8393 52.5C62.842 54.7091 62.4083 56.8971 61.563 58.9386C60.7177 60.98 59.4774 62.8349 57.9132 64.397C56.349 65.9591 54.4916 67.1977 52.4473 68.0418C50.4031 68.886 48.2121 69.3191 46 69.3164V69.3164ZM63.5334 38.9033C62.7559 38.9037 61.9958 38.6739 61.3491 38.2428C60.7025 37.8117 60.1984 37.1989 59.9006 36.4817C59.6028 35.7645 59.5247 34.9752 59.6761 34.2136C59.8275 33.4521 60.2017 32.7525 60.7513 32.2033C61.3009 31.6542 62.0013 31.2801 62.7638 31.1285C63.5263 30.9769 64.3167 31.0545 65.035 31.3515C65.7534 31.6486 66.3673 32.1517 66.7993 32.7972C67.2313 33.4427 67.4619 34.2017 67.4619 34.9781C67.464 35.4937 67.3643 36.0047 67.1682 36.4817C66.9722 36.9587 66.6838 37.3923 66.3196 37.7577C65.9554 38.1232 65.5225 38.4132 65.0458 38.6112C64.5691 38.8092 64.0579 38.9113 63.5416 38.9115L63.5334 38.9033ZM82.1429 6.5625H9.85714C7.24287 6.5625 4.73566 7.59961 2.88709 9.44567C1.03852 11.2917 0 13.7955 0 16.4062L0 88.5938C0 91.2045 1.03852 93.7083 2.88709 95.5543C4.73566 97.4004 7.24287 98.4375 9.85714 98.4375H82.1429C84.7571 98.4375 87.2643 97.4004 89.1129 95.5543C90.9615 93.7083 92 91.2045 92 88.5938V16.4062C92 13.7955 90.9615 11.2917 89.1129 9.44567C87.2643 7.59961 84.7571 6.5625 82.1429 6.5625V6.5625ZM78.6271 66.0352C78.3622 71.2913 77.1609 75.9486 73.3187 79.7754C69.4764 83.6021 64.8169 84.8265 59.5597 85.0767C54.1363 85.3822 37.8761 85.3822 32.4526 85.0767C27.1893 84.8121 22.5421 83.6104 18.6937 79.7754C14.8453 75.9404 13.6357 71.2811 13.3852 66.0352C13.0792 60.617 13.0792 44.3769 13.3852 38.9648C13.6501 33.7087 14.8371 29.0514 18.6937 25.2246C22.5503 21.3979 27.2098 20.1879 32.4526 19.9377C37.8761 19.6321 54.1363 19.6321 59.5597 19.9377C64.823 20.2022 69.4846 21.404 73.3187 25.239C77.1527 29.0739 78.3766 33.7333 78.6271 38.9895C78.9331 44.3871 78.9331 60.6129 78.6271 66.0352Z" fill="white"/>
</g>
<defs>
<clipPath id="clip0_101:32">
<rect width="92" height="105" fill="white"/>
</clipPath>
</defs>
</svg>
