<svg width="130" height="130" viewBox="0 0 130 130" fill="none" xmlns="http://www.w3.org/2000/svg">
<g clip-path="url(#clip0_101:34)">
<path d="M129.147 37.7787C129.147 26.3529 120.743 17.1615 110.358 17.1615C96.2915 16.5039 81.9458 16.25 67.2852 16.25H62.7149C48.0899 16.25 33.7188 16.5039 19.6524 17.1641C9.29305 17.1641 0.888751 26.4062 0.888751 37.832C0.253985 46.8686 -0.0151552 55.9076 7.91807e-05 64.9467C-0.0253114 73.9857 0.262449 83.0333 0.863361 92.0893C0.863361 103.515 9.26766 112.783 19.627 112.783C34.4044 113.468 49.5626 113.773 64.9747 113.747C80.4122 113.798 95.5281 113.477 110.322 112.783C120.707 112.783 129.111 103.515 129.111 92.0893C129.721 83.0248 130 73.9857 129.975 64.9213C130.032 55.8822 129.756 46.8347 129.147 37.7787ZM52.5587 89.8549V39.9623L89.3751 64.8959L52.5587 89.8549Z" fill="white"/>
</g>
<defs>
<clipPath id="clip0_101:34">
<rect width="130" height="130" fill="white"/>
</clipPath>
</defs>
</svg>
